<?xml version="1.0" encoding="utf-8"?>
<!-- Generator: Adobe Illustrator 25.2.3, SVG Export Plug-In . SVG Version: 6.00 Build 0)  -->
<svg version="1.1" id="レイヤー_1" xmlns="http://www.w3.org/2000/svg" xmlns:xlink="http://www.w3.org/1999/xlink" x="0px"
	 y="0px" viewBox="0 0 220 39" style="enable-background:new 0 0 220 39;" xml:space="preserve">
<style type="text/css">
	.st0{fill:#FFFFFF;}
</style>
<g>
	<path class="st0" d="M10.13,17.07l8.08-8.02c0.8-0.79,1.3-1.33,1.5-1.61c0.2-0.29,0.3-0.6,0.3-0.94c0-0.62-0.31-1.1-0.92-1.41
		c-0.32-0.15-0.85-0.27-1.6-0.34V4.3h8.23v0.44c-0.56,0.05-1.03,0.14-1.4,0.28c-0.38,0.13-0.79,0.36-1.23,0.68
		c-0.5,0.36-1.35,1.11-2.56,2.27l-6.19,5.94l8.8,11.23l1.09,1.39c0.8,0.99,1.64,1.77,2.5,2.33c0.52,0.34,0.98,0.59,1.37,0.74
		c0.39,0.15,0.89,0.26,1.49,0.33v0.44H16.96v-0.44c0.95-0.08,1.64-0.24,2.06-0.48c0.42-0.24,0.63-0.6,0.63-1.07
		c0-0.51-0.26-1.16-0.78-1.95c-0.25-0.38-0.73-1.04-1.43-1.99c-0.7-0.94-1.29-1.71-1.78-2.29l-4.3-5.33l-1.24,1.22v6.32
		c0,1.3,0.07,2.26,0.22,2.89c0.15,0.63,0.42,1.15,0.81,1.56c0.34,0.36,0.74,0.62,1.19,0.79c0.45,0.17,1.05,0.28,1.79,0.32v0.44H1.94
		v-0.44c0.74-0.04,1.33-0.14,1.79-0.32c0.45-0.17,0.85-0.44,1.19-0.79c0.41-0.41,0.68-0.92,0.82-1.55c0.14-0.62,0.21-1.59,0.21-2.9
		V10.29c0-1.31-0.07-2.28-0.21-2.9C5.59,6.76,5.32,6.25,4.91,5.84c-0.34-0.37-0.74-0.64-1.2-0.8C3.25,4.87,2.66,4.77,1.94,4.73V4.3
		h12.2v0.44c-0.73,0.04-1.31,0.14-1.77,0.31c-0.45,0.17-0.86,0.43-1.21,0.8c-0.39,0.41-0.67,0.93-0.81,1.56
		c-0.15,0.63-0.22,1.59-0.22,2.89V17.07z"/>
	<path class="st0" d="M46.05,28.5l0.32,0.19c-0.46,1.34-1.51,2-3.15,2c-0.91,0-1.66-0.22-2.26-0.67c-0.4-0.29-0.8-0.8-1.22-1.53
		c-0.85,0.76-1.5,1.27-1.93,1.51c-0.83,0.46-1.79,0.69-2.89,0.69c-1.4,0-2.51-0.34-3.34-1.01c-0.82-0.67-1.23-1.58-1.23-2.73
		c0-1.06,0.34-1.94,1.01-2.65c0.38-0.39,0.82-0.71,1.32-0.94s1.22-0.47,2.16-0.72c1.11-0.28,1.92-0.52,2.45-0.71
		c0.53-0.19,0.97-0.42,1.33-0.69c0.41-0.29,0.69-0.64,0.84-1.03c0.15-0.39,0.23-0.94,0.23-1.64c0-1.49-0.28-2.58-0.84-3.27
		c-0.25-0.32-0.58-0.57-0.98-0.76c-0.4-0.19-0.82-0.29-1.25-0.29c-0.52,0-0.99,0.13-1.39,0.4c-0.41,0.27-0.71,0.64-0.92,1.11
		l-0.48,1.11c-0.25,0.6-0.71,0.9-1.37,0.9c-0.43,0-0.8-0.14-1.09-0.43c-0.29-0.29-0.44-0.65-0.44-1.08c0-0.65,0.46-1.2,1.38-1.64
		c0.5-0.23,1.11-0.42,1.85-0.56c0.73-0.15,1.45-0.22,2.15-0.22c0.79,0,1.61,0.1,2.47,0.31c0.85,0.2,1.57,0.46,2.14,0.78
		c0.83,0.47,1.34,1.08,1.55,1.83c0.1,0.38,0.15,1.02,0.15,1.93v7.06c0,1.2,0.05,2.01,0.15,2.44c0.22,0.9,0.74,1.36,1.57,1.36
		c0.39,0,0.7-0.07,0.93-0.21C45.48,29.2,45.74,28.92,46.05,28.5z M39.73,20.98c-0.69,0.57-1.44,1.08-2.26,1.51
		c-0.93,0.5-1.57,0.87-1.92,1.13c-0.36,0.25-0.68,0.56-0.97,0.92c-0.6,0.74-0.89,1.6-0.89,2.58c0,0.84,0.23,1.53,0.69,2.08
		c0.46,0.55,1.05,0.82,1.76,0.82c0.62,0,1.21-0.19,1.76-0.58c0.55-0.39,0.97-0.91,1.25-1.56c0.39-0.85,0.59-2.09,0.59-3.7V20.98z"/>
	<path class="st0" d="M50.95,14.13h4.85v0.73h-4.85v11.11c0,1.34,0.23,2.29,0.69,2.86c0.24,0.32,0.56,0.57,0.95,0.74
		c0.39,0.18,0.82,0.27,1.27,0.27c0.57,0,1.05-0.12,1.43-0.35c0.38-0.23,0.8-0.66,1.26-1.29l0.29,0.25c-0.42,0.76-1.01,1.33-1.77,1.7
		c-0.76,0.37-1.7,0.55-2.84,0.55c-1.5,0-2.6-0.29-3.28-0.88c-0.37-0.31-0.61-0.67-0.73-1.1c-0.11-0.43-0.17-1.19-0.17-2.3V14.85
		h-2.04v-0.31c0.83-0.27,1.59-0.78,2.29-1.55c0.42-0.47,0.76-0.94,1.02-1.4c0.26-0.46,0.5-1.07,0.73-1.8l0.19-0.63h0.71V14.13z"/>
	<path class="st0" d="M60.08,19.97C60.02,20.59,60,21.05,60,21.33c0,1.11,0.16,2.19,0.49,3.25c0.32,1.06,0.76,1.94,1.32,2.63
		c0.57,0.71,1.28,1.27,2.12,1.68c0.84,0.41,1.73,0.61,2.65,0.61c0.68,0,1.33-0.11,1.95-0.34c0.62-0.23,1.13-0.55,1.53-0.95
		c0.46-0.45,0.85-1.16,1.18-2.14l0.4,0.13c-0.33,1.49-1.04,2.61-2.13,3.37c-1.09,0.76-2.54,1.14-4.34,1.14
		c-1.57,0-2.91-0.25-4.03-0.74c-1.12-0.5-2.07-1.26-2.84-2.29c-1.08-1.44-1.62-3.21-1.62-5.31c0-2.86,1.02-5.11,3.07-6.74
		c1.49-1.18,3.19-1.78,5.1-1.78c1.02,0,1.96,0.18,2.83,0.54c0.87,0.36,1.6,0.89,2.2,1.58c0.93,1.07,1.39,2.41,1.39,4.01H60.08z
		 M68.4,19.23c-0.09-1.27-0.32-2.25-0.7-2.94c-0.34-0.62-0.8-1.12-1.37-1.48c-0.57-0.36-1.18-0.54-1.82-0.54
		c-1.09,0-2.04,0.47-2.86,1.41c-0.82,0.94-1.3,2.13-1.45,3.55H68.4z"/>
	<path class="st0" d="M84.07,22.3c0-2.06,0.76-3.9,2.29-5.52c1.86-1.96,4.08-2.94,6.66-2.94c2.58,0,4.8,0.98,6.64,2.94
		c1.53,1.63,2.29,3.47,2.29,5.54c0,2.04-0.73,3.85-2.18,5.44c-1.78,1.96-4.04,2.94-6.76,2.94c-2.72,0-4.98-0.98-6.78-2.94
		c-0.7-0.76-1.24-1.62-1.61-2.56C84.26,24.26,84.07,23.29,84.07,22.3z M87.55,22.08c0,2.21,0.5,4.09,1.49,5.63
		c1.12,1.72,2.49,2.57,4.1,2.57c0.69,0,1.36-0.19,2-0.57c0.65-0.38,1.21-0.91,1.68-1.6c0.5-0.71,0.9-1.61,1.2-2.68
		c0.31-1.07,0.46-2.11,0.46-3.12c0-1.04-0.16-2.09-0.49-3.16c-0.32-1.06-0.76-1.97-1.31-2.74c-1.04-1.44-2.32-2.16-3.84-2.16
		c-1.44,0-2.68,0.76-3.72,2.27C88.08,18.04,87.55,19.89,87.55,22.08z"/>
	<path class="st0" d="M108.39,14.85v9.97l0.02,1.45c0,0.86,0.05,1.5,0.15,1.9c0.1,0.4,0.3,0.73,0.59,1c0.36,0.34,1.01,0.6,1.97,0.78
		v0.4h-8.44v-0.4c0.76-0.1,1.31-0.24,1.64-0.43c0.33-0.18,0.6-0.5,0.8-0.94c0.14-0.29,0.24-0.73,0.3-1.32
		c0.06-0.59,0.09-1.45,0.09-2.57v-9.84h-2.77v-0.73h2.77V9.47c0-1.12,0.14-2,0.43-2.65c0.29-0.65,0.8-1.25,1.55-1.79
		c0.67-0.48,1.48-0.86,2.44-1.14c0.96-0.27,1.98-0.41,3.05-0.41c0.99,0,1.79,0.17,2.39,0.52c0.6,0.34,0.9,0.8,0.9,1.37
		c0,0.38-0.12,0.7-0.37,0.95c-0.25,0.25-0.55,0.38-0.91,0.38c-0.34,0-0.64-0.09-0.9-0.28c-0.25-0.18-0.51-0.49-0.76-0.91
		c-0.36-0.59-0.65-0.97-0.88-1.15c-0.23-0.18-0.54-0.28-0.94-0.28c-0.48,0-0.94,0.1-1.37,0.3c-0.43,0.2-0.77,0.45-1.01,0.77
		c-0.27,0.36-0.45,0.82-0.55,1.4c-0.1,0.58-0.15,1.42-0.15,2.51v5.06h3.76v0.73H108.39z"/>
	<path class="st0" d="M134.12,4.89c-0.8,0-1.66,0.03-2.58,0.08c-1.96,0.1-3.42,0.35-4.38,0.74c-0.96,0.39-1.75,1.08-2.38,2.04
		c-0.57,0.89-1.01,2.1-1.32,3.63l-0.44-0.04l0.34-7.04h25.83l0.34,7.04l-0.44,0.04c-0.34-1.77-0.88-3.11-1.61-4.02
		c-0.73-0.91-1.8-1.56-3.2-1.96c-1.18-0.34-3.19-0.52-6.01-0.52v19.47c0,1.3,0.07,2.26,0.22,2.89c0.15,0.63,0.42,1.15,0.81,1.56
		c0.36,0.37,0.76,0.64,1.21,0.8c0.45,0.17,1.04,0.27,1.77,0.31v0.44h-12.2v-0.44c0.74-0.04,1.33-0.14,1.79-0.31
		c0.45-0.17,0.86-0.43,1.21-0.8c0.39-0.41,0.66-0.92,0.81-1.55c0.15-0.62,0.22-1.59,0.22-2.9V4.89z"/>
	<path class="st0" d="M146.1,22.3c0-2.06,0.76-3.9,2.29-5.52c1.86-1.96,4.08-2.94,6.66-2.94c2.58,0,4.8,0.98,6.64,2.94
		c1.53,1.63,2.29,3.47,2.29,5.54c0,2.04-0.73,3.85-2.18,5.44c-1.78,1.96-4.04,2.94-6.76,2.94c-2.72,0-4.98-0.98-6.78-2.94
		c-0.7-0.76-1.24-1.62-1.61-2.56C146.28,24.26,146.1,23.29,146.1,22.3z M149.57,22.08c0,2.21,0.5,4.09,1.49,5.63
		c1.12,1.72,2.49,2.57,4.1,2.57c0.69,0,1.36-0.19,2-0.57c0.65-0.38,1.21-0.91,1.68-1.6c0.5-0.71,0.9-1.61,1.2-2.68
		c0.31-1.07,0.46-2.11,0.46-3.12c0-1.04-0.16-2.09-0.49-3.16c-0.32-1.06-0.76-1.97-1.31-2.74c-1.04-1.44-2.32-2.16-3.84-2.16
		c-1.44,0-2.68,0.76-3.72,2.27C150.1,18.04,149.57,19.89,149.57,22.08z"/>
	<path class="st0" d="M170.28,22.64l3.47-3.8c0.71-0.8,1.19-1.4,1.43-1.78c0.24-0.39,0.36-0.78,0.36-1.17
		c0-0.54-0.28-0.92-0.84-1.13c-0.24-0.1-0.7-0.17-1.36-0.21v-0.42h7.35v0.42c-0.93,0-1.68,0.16-2.25,0.47
		c-0.57,0.32-1.32,0.97-2.25,1.97l-0.76,0.86l-2.08,2.23l4.92,5.54c0.41,0.45,0.67,0.73,0.8,0.86l0.86,0.88
		c0.69,0.68,1.18,1.15,1.49,1.4c0.3,0.25,0.67,0.49,1.09,0.72c0.48,0.25,1.11,0.41,1.87,0.47v0.4h-8.95v-0.4
		c0.54-0.05,0.92-0.14,1.14-0.26c0.31-0.19,0.46-0.45,0.46-0.8c0-0.37-0.18-0.75-0.55-1.15l-0.4-0.46l-4.61-5.12l-1.16,1.28v1.39
		l0.02,1.45c0,0.86,0.05,1.5,0.15,1.9c0.1,0.4,0.3,0.73,0.59,1c0.36,0.34,1.01,0.6,1.97,0.78v0.4h-8.44v-0.4
		c0.76-0.1,1.31-0.24,1.64-0.43c0.33-0.18,0.6-0.5,0.8-0.94c0.14-0.29,0.24-0.73,0.3-1.32c0.06-0.59,0.09-1.45,0.09-2.56V9.73
		c0-1.3-0.03-2.21-0.1-2.75c-0.06-0.53-0.2-0.97-0.42-1.3c-0.22-0.36-0.48-0.61-0.78-0.76c-0.31-0.15-0.74-0.25-1.32-0.29V4.22
		l5.5-0.69V22.64z"/>
	<path class="st0" d="M182.74,14.13h7.41v0.42c-0.52,0.08-0.9,0.18-1.13,0.3c-0.5,0.28-0.74,0.71-0.74,1.3
		c0,0.51,0.26,1.42,0.78,2.73l3.19,8.18l2.79-6.88c0.69-1.72,1.03-2.93,1.03-3.64c0-0.57-0.16-1.03-0.48-1.36
		c-0.32-0.34-0.78-0.54-1.39-0.62v-0.42h5.46v0.42c-0.55,0.15-0.95,0.31-1.21,0.48c-0.26,0.17-0.51,0.43-0.75,0.78
		c-0.37,0.56-0.95,1.81-1.76,3.76l-5.54,13.44c-0.66,1.6-1.2,2.65-1.6,3.13c-0.69,0.8-1.56,1.2-2.62,1.2
		c-0.67,0-1.22-0.13-1.63-0.39c-0.41-0.26-0.62-0.6-0.62-1.02c0-0.33,0.12-0.6,0.36-0.79c0.24-0.2,0.56-0.3,0.95-0.3
		c0.33,0,0.71,0.09,1.14,0.27c0.42,0.17,0.69,0.27,0.81,0.31c0.12,0.04,0.26,0.06,0.43,0.06c0.79,0,1.43-0.59,1.92-1.78l0.59-1.46
		c0.25-0.61,0.38-1.09,0.38-1.42c0-0.47-0.24-1.29-0.72-2.46l-3.96-9.52l-0.57-1.37c-0.34-0.81-0.61-1.39-0.8-1.74
		c-0.19-0.34-0.38-0.59-0.57-0.74c-0.32-0.24-0.7-0.39-1.15-0.44V14.13z"/>
	<path class="st0" d="M198.73,22.3c0-2.06,0.76-3.9,2.29-5.52c1.86-1.96,4.08-2.94,6.66-2.94c2.58,0,4.8,0.98,6.64,2.94
		c1.53,1.63,2.29,3.47,2.29,5.54c0,2.04-0.73,3.85-2.18,5.44c-1.78,1.96-4.04,2.94-6.76,2.94c-2.72,0-4.98-0.98-6.78-2.94
		c-0.7-0.76-1.24-1.62-1.61-2.56C198.91,24.26,198.73,23.29,198.73,22.3z M202.2,22.08c0,2.21,0.5,4.09,1.49,5.63
		c1.12,1.72,2.49,2.57,4.1,2.57c0.69,0,1.36-0.19,2-0.57c0.65-0.38,1.21-0.91,1.68-1.6c0.5-0.71,0.9-1.61,1.2-2.68
		c0.31-1.07,0.46-2.11,0.46-3.12c0-1.04-0.16-2.09-0.49-3.16c-0.32-1.06-0.76-1.97-1.31-2.74c-1.04-1.44-2.32-2.16-3.84-2.16
		c-1.44,0-2.68,0.76-3.72,2.27C202.73,18.04,202.2,19.89,202.2,22.08z"/>
</g>
</svg>
